# xmcd CD database file
#
# Track frame offsets:
#	150
#	22655
#	42363
#	64868
#
# Disc length: 1124 seconds
#
# Revision: 0
# Processed by: cddbd v1.5.1PL0 Copyright (c) Steve Scherf et al.
# Submitted via: CDex 1.51
#
DISCID=28046204
DTITLE=BOYSTYLE - 花咲く丘へ
DYEAR=2004
DGENRE=JPop
TTITLE0=花咲く丘へ
TTITLE1=TWO OF US
TTITLE2=花咲く丘へ-Instrumental-
TTITLE3=TWO OF US-Instrumental-
EXTD=YEAR: 2004
EXTT0=
EXTT1=
EXTT2=
EXTT3=
PLAYORDER=
